<svg xmlns="http://www.w3.org/2000/svg" viewBox="0 0 34 34">
    <rect x="0" y="0" width="34" height="34" rx="8" ry="8" fill="#181717"/>
    <g transform="translate(5, 5)" fill="#ffffff">
        <path d="M12.6 18.06c-.36.28-.87.28-1.23 0l-6.15-4.78a.991.991 0 0 0-1.22 0 .997.997 0 0 0 0 1.57l6.76 5.26c.72.56 1.73.56 2.46 0l6.76-5.26c.51-.4.51-1.17 0-1.57l-.01-.01a.991.991 0 0 0-1.22 0l-6.15 4.79zm.63-3.02 6.76-5.26c.51-.4.51-1.18 0-1.58l-6.76-5.26c-.72-.56-1.73-.56-2.46 0L4.01 8.21c-.51.4-.51 1.18 0 1.58l6.76 5.26c.72.56 1.74.56 2.46-.01z"/>
    </g>
</svg>