<svg xmlns="http://www.w3.org/2000/svg" viewBox="0 0 48 48">
    <defs>
        <linearGradient id="grad" x1="0%" y1="0%" x2="100%" y2="100%">
            <stop offset="0%" style="stop-color:#673AB7;stop-opacity:1" />
            <stop offset="100%" style="stop-color:#9575CD;stop-opacity:1" />
        </linearGradient>
    </defs>
    <circle cx="24" cy="24" r="24" fill="url(#grad)"/>
    <g transform="translate(12, 12)" fill="#ffffff">
        <path d="M12.6 18.06c-.36.28-.87.28-1.23 0l-6.15-4.78a.991.991 0 0 0-1.22 0 .997.997 0 0 0 0 1.57l6.76 5.26c.72.56 1.73.56 2.46 0l6.76-5.26c.51-.4.51-1.17 0-1.57l-.01-.01a.991.991 0 0 0-1.22 0l-6.15 4.79zm.63-3.02 6.76-5.26c.51-.4.51-1.18 0-1.58l-6.76-5.26c-.72-.56-1.73-.56-2.46 0L4.01 8.21c-.51.4-.51 1.18 0 1.58l6.76 5.26c.72.56 1.74.56 2.46-.01z"/>
    </g>
</svg>