<svg xmlns="http://www.w3.org/2000/svg" viewBox="0 0 48 48">
    <defs>
        <linearGradient id="grad" x1="0%" y1="0%" x2="100%" y2="100%">
            <stop offset="0%" style="stop-color:#EA4335;stop-opacity:1" />
            <stop offset="100%" style="stop-color:#F57C00;stop-opacity:1" />
        </linearGradient>
    </defs>
    <circle cx="24" cy="24" r="24" fill="url(#grad)"/>
    <g transform="translate(12, 12)" fill="#ffffff">
        <path d="M20 4H4c-1.1 0-2 .9-2 2v12c0 1.1.9 2 2 2h16c1.1 0 2-.9 2-2V6c0-1.1-.9-2-2-2zm-.4 4.25-6.54 4.09c-.65.41-1.47.41-2.12 0L4.4 8.25a.85.85 0 1 1 .9-1.44L12 11l6.7-4.19a.85.85 0 1 1 .9 1.44z"/>
    </g>
</svg>