<svg xmlns="http://www.w3.org/2000/svg" viewBox="0 0 48 48">
    <defs>
        <linearGradient id="grad" x1="0%" y1="0%" x2="100%" y2="100%">
            <stop offset="0%" style="stop-color:#00BCD4;stop-opacity:1" />
            <stop offset="100%" style="stop-color:#26C6DA;stop-opacity:1" />
        </linearGradient>
    </defs>
    <circle cx="24" cy="24" r="24" fill="url(#grad)"/>
    <g transform="translate(12, 12)" fill="#ffffff">
        <path d="M12.09 2.91C10.08.9 7.07.49 4.65 1.67L8.28 5.3c.39.39.39 1.02 0 1.41L6.69 8.3c-.39.4-1.02.4-1.41 0L1.65 4.67C.48 7.1.89 10.09 2.9 12.1a6.507 6.507 0 0 0 6.89 1.48l7.96 7.96a2.613 2.613 0 0 0 3.71 0 2.613 2.613 0 0 0 0-3.71L13.54 9.9c.92-2.34.44-5.1-1.45-6.99z"/>
    </g>
</svg>