<svg xmlns="http://www.w3.org/2000/svg" viewBox="0 0 48 48">
    <defs>
        <linearGradient id="grad" x1="0%" y1="0%" x2="100%" y2="100%">
            <stop offset="0%" style="stop-color:#9C27B0;stop-opacity:1" />
            <stop offset="100%" style="stop-color:#BA68C8;stop-opacity:1" />
        </linearGradient>
    </defs>
    <circle cx="24" cy="24" r="24" fill="url(#grad)"/>
    <g transform="translate(12, 12)" fill="#ffffff">
        <path d="M8.7 15.9 4.8 12l3.9-3.9a.984.984 0 0 0 0-1.4.984.984 0 0 0-1.4 0l-4.59 4.59a.996.996 0 0 0 0 1.41l4.59 4.6c.39.39 1.01.39 1.4 0a.984.984 0 0 0 0-1.4zm6.6 0 3.9-3.9-3.9-3.9a.984.984 0 0 1 0-1.4.984.984 0 0 1 1.4 0l4.59 4.59c.39.39.39 1.02 0 1.41l-4.59 4.6a.984.984 0 0 1-1.4 0 .984.984 0 0 1 0-1.4z"/>
    </g>
</svg>