<svg xmlns="http://www.w3.org/2000/svg" viewBox="0 0 48 48">
    <defs>
        <linearGradient id="grad" x1="0%" y1="0%" x2="100%" y2="100%">
            <stop offset="0%" style="stop-color:#03A9F4;stop-opacity:1" />
            <stop offset="100%" style="stop-color:#4FC3F7;stop-opacity:1" />
        </linearGradient>
    </defs>
    <circle cx="24" cy="24" r="24" fill="url(#grad)"/>
    <g transform="translate(12, 12)" fill="#ffffff">
        <path d="M4 20h16c1.1 0 2-.9 2-2s-.9-2-2-2H4c-1.1 0-2 .9-2 2s.9 2 2 2zm0-3h2v2H4v-2zM2 6c0 1.1.9 2 2 2h16c1.1 0 2-.9 2-2s-.9-2-2-2H4c-1.1 0-2 .9-2 2zm4 1H4V5h2v2zm-2 7h16c1.1 0 2-.9 2-2s-.9-2-2-2H4c-1.1 0-2 .9-2 2s.9 2 2 2zm0-3h2v2H4v-2z"/>
    </g>
</svg>